<svg version="1.1" id="Layer_1" xmlns="http://www.w3.org/2000/svg" xmlns:xlink="http://www.w3.org/1999/xlink" x="0px" y="0px" viewBox="0 0 500 500" style="width: 183px;" xml:space="preserve" data-imageid="404-page-not-found-97" imageName="404 Page Not Found" class="illustrations_image">
<style type="text/css">
	.st0_404-page-not-found-97{fill:#FFFFFF;}
	.st1_404-page-not-found-97{fill:#093F68;}
	.st2_404-page-not-found-97{fill:#68E1FD;}
	.st3_404-page-not-found-97{fill:#DFEAEF;}
	.st4_404-page-not-found-97{fill:#FFBC0E;}
	.st5_404-page-not-found-97{fill:#F56132;}
</style>
<g id="screen_404-page-not-found-97">
	<path class="st0_404-page-not-found-97" d="M117.1,75.7h271.1c7,0,12.7,5.7,12.7,12.7v323.2c0,7-5.7,12.7-12.7,12.7H117.1c-7,0-12.7-5.7-12.7-12.7V88.4&#10;&#9;&#9;C104.4,81.4,110.1,75.7,117.1,75.7z"/>
	<path class="st1_404-page-not-found-97" d="M387.1,426.8H118.3c-9,0-16.3-7.3-16.4-16.4V89.6c0-9,7.3-16.3,16.4-16.3h268.8c9,0,16.3,7.3,16.4,16.3v320.9&#10;&#9;&#9;C403.4,419.5,396.1,426.8,387.1,426.8z M118.3,78.2c-6.3,0-11.3,5.1-11.3,11.3v320.9c0,6.3,5.1,11.3,11.3,11.4h268.8&#10;&#9;&#9;c6.3,0,11.3-5.1,11.4-11.4V89.6c0-6.3-5.1-11.3-11.4-11.3H118.3z"/>
	<path class="st2_404-page-not-found-97 targetColor" d="M118.6,75.7h268.1c7.8,0,14.2,6.4,14.2,14.2v0v23.8l0,0H104.4l0,0V89.9C104.4,82.1,110.8,75.7,118.6,75.7&#10;&#9;&#9;L118.6,75.7z" style="fill: rgb(104, 225, 253);"/>
	<path class="st1_404-page-not-found-97" d="M400.9,116.2H104.4c-1.4,0-2.5-1.1-2.5-2.5c0,0,0,0,0,0V89.6c0-9,7.3-16.3,16.4-16.3h268.8&#10;&#9;&#9;c9,0,16.3,7.3,16.4,16.3v24.2C403.4,115.1,402.3,116.3,400.9,116.2C400.9,116.3,400.9,116.3,400.9,116.2z M106.9,111.2h291.5V89.6&#10;&#9;&#9;c0-6.3-5.1-11.3-11.4-11.3H118.3c-6.3,0-11.3,5.1-11.3,11.3L106.9,111.2z"/>
	<circle class="st1_404-page-not-found-97" cx="129.6" cy="93.9" r="6.2"/>
	<circle class="st1_404-page-not-found-97" cx="146.7" cy="93.9" r="6.2"/>
	<circle class="st1_404-page-not-found-97" cx="163.8" cy="93.9" r="6.2"/>
	<path class="st3_404-page-not-found-97" d="M251.9,141.7H128.5c-1.4,0-2.5-1.1-2.5-2.5s1.1-2.5,2.5-2.5h123.3c1.4,0,2.5,1.1,2.5,2.5&#10;&#9;&#9;S253.2,141.7,251.9,141.7z"/>
	<path class="st3_404-page-not-found-97" d="M303.6,141.7h-25c-1.4,0-2.5-1.1-2.5-2.5s1.1-2.5,2.5-2.5h25c1.4,0,2.5,1.1,2.5,2.5S305,141.7,303.6,141.7z"/>
	<path class="st3_404-page-not-found-97" d="M204.6,172.7h-74.9c-1.4,0-2.5-1.1-2.5-2.5s1.1-2.5,2.5-2.5h74.9c1.4,0,2.5,1.1,2.5,2.5&#10;&#9;&#9;S205.9,172.7,204.6,172.7z"/>
	<path class="st3_404-page-not-found-97" d="M204.6,281.4h-26c-1.4,0-2.5-1.1-2.5-2.5s1.1-2.5,2.5-2.5h26c1.4,0,2.5,1.1,2.5,2.5S205.9,281.4,204.6,281.4z"/>
	<path class="st3_404-page-not-found-97" d="M204.6,307.5h-16.9c-1.4,0-2.5-1.1-2.5-2.5s1.1-2.5,2.5-2.5h16.9c1.4,0,2.5,1.1,2.5,2.5&#10;&#9;&#9;S205.9,307.5,204.6,307.5z"/>
	<path class="st3_404-page-not-found-97" d="M368.8,141.7h-42.1c-1.4,0-2.5-1.1-2.5-2.5s1.1-2.5,2.5-2.5h42.1c1.4,0,2.5,1.1,2.5,2.5&#10;&#9;&#9;S370.2,141.7,368.8,141.7z"/>
</g>
<g id="speech-bubble_404-page-not-found-97">
	<path class="st4_404-page-not-found-97" d="M62.2,194.3h145.7c1.3,0,2.4,1.1,2.4,2.4v46.9c0,1.3-1.1,2.4-2.4,2.4H62.2c-1.3,0-2.4-1.1-2.4-2.4v-46.9&#10;&#9;&#9;C59.8,195.4,60.9,194.3,62.2,194.3z"/>
	<path class="st1_404-page-not-found-97" d="M204.2,248.5H65.9c-4.7,0-8.5-3.8-8.6-8.5v-39.7c0-4.7,3.8-8.6,8.6-8.6h138.4c4.7,0,8.6,3.8,8.6,8.6V240&#10;&#9;&#9;C212.8,244.7,208.9,248.5,204.2,248.5z M65.9,196.8c-2,0-3.6,1.6-3.6,3.6V240c0,2,1.6,3.6,3.6,3.6h0h138.4c2,0,3.6-1.6,3.6-3.6v0&#10;&#9;&#9;v-39.7c0-2-1.6-3.6-3.6-3.6H65.9z"/>
	<path class="st1_404-page-not-found-97" d="M76.3,220.1c0-1.7,0.3-3.5,0.9-5.1c0.6-1.5,1.5-2.8,2.6-3.9c1.2-1.1,2.5-1.9,4-2.5c3.3-1.1,6.8-1.1,10.1,0&#10;&#9;&#9;c1.5,0.5,2.8,1.4,4,2.5c1.1,1.1,2,2.4,2.6,3.9c1.3,3.3,1.3,6.9,0,10.2c-0.6,1.5-1.5,2.8-2.6,3.9c-1.2,1.1-2.5,1.9-4,2.5&#10;&#9;&#9;c-3.3,1.1-6.8,1.1-10.1,0c-1.5-0.5-2.8-1.4-4-2.5c-1.1-1.1-2-2.4-2.6-3.9C76.6,223.6,76.3,221.9,76.3,220.1z M81.7,220.1&#10;&#9;&#9;c0,1,0.2,2,0.5,3c0.3,0.9,0.8,1.7,1.5,2.4c0.6,0.7,1.4,1.2,2.3,1.6c1,0.4,2,0.6,3,0.6c1,0,2-0.2,3-0.6c0.9-0.4,1.7-0.9,2.3-1.6&#10;&#9;&#9;c0.6-0.7,1.1-1.5,1.5-2.4c0.7-1.9,0.7-4.1,0-6c-0.3-0.9-0.8-1.7-1.5-2.4c-0.6-0.7-1.4-1.2-2.3-1.6c-1-0.4-2-0.6-3-0.6&#10;&#9;&#9;c-1,0-2,0.2-3,0.6c-0.9,0.4-1.6,0.9-2.3,1.6c-0.7,0.7-1.2,1.5-1.5,2.4C81.9,218.1,81.7,219.1,81.7,220.1z"/>
	<path class="st1_404-page-not-found-97" d="M107.2,220.1c0-1.7,0.3-3.5,0.9-5.1c0.6-1.5,1.5-2.8,2.6-3.9c1.2-1.1,2.5-1.9,4-2.5c3.3-1.1,6.8-1.1,10.1,0&#10;&#9;&#9;c1.5,0.5,2.8,1.4,4,2.5c1.1,1.1,2,2.4,2.6,3.9c1.3,3.3,1.3,6.9,0,10.2c-0.6,1.5-1.5,2.8-2.6,3.9c-1.2,1.1-2.5,1.9-4,2.5&#10;&#9;&#9;c-3.3,1.1-6.8,1.1-10.1,0c-1.5-0.5-2.8-1.4-4-2.5c-1.1-1.1-2-2.4-2.6-3.9C107.5,223.6,107.2,221.9,107.2,220.1z M112.5,220.1&#10;&#9;&#9;c0,1,0.2,2,0.5,3c0.3,0.9,0.8,1.7,1.5,2.4c0.6,0.7,1.4,1.2,2.3,1.6c1.9,0.7,4.1,0.7,6,0c0.9-0.4,1.7-0.9,2.3-1.6&#10;&#9;&#9;c0.6-0.7,1.1-1.5,1.5-2.4c0.7-1.9,0.7-4.1,0-6c-0.3-0.9-0.8-1.7-1.5-2.4c-0.6-0.7-1.4-1.2-2.3-1.6c-1.9-0.8-4.1-0.8-6,0&#10;&#9;&#9;c-0.9,0.4-1.7,0.9-2.3,1.6c-0.7,0.7-1.2,1.5-1.5,2.4C112.7,218.1,112.5,219.1,112.5,220.1z"/>
	<path class="st1_404-page-not-found-97" d="M139.3,208.4h8.7c1.2,0,2.3,0.1,3.4,0.3c1,0.2,2,0.6,2.8,1.1c0.8,0.6,1.5,1.3,1.9,2.2c0.5,1.1,0.8,2.3,0.7,3.5&#10;&#9;&#9;c0,1.2-0.2,2.4-0.7,3.4c-0.4,0.9-1,1.6-1.8,2.2c-0.8,0.6-1.8,1-2.8,1.2c-1.1,0.2-2.3,0.4-3.4,0.4h-3.8v9.1h-5.2L139.3,208.4z&#10;&#9;&#9; M144.4,218.4h3.4c0.4,0,0.9,0,1.3-0.1c0.4-0.1,0.8-0.2,1.1-0.4c0.3-0.2,0.6-0.5,0.8-0.9c0.2-0.4,0.3-0.9,0.3-1.4&#10;&#9;&#9;c0-0.5-0.1-1-0.4-1.4c-0.3-0.4-0.6-0.7-1.1-0.8c-0.5-0.2-0.9-0.3-1.4-0.4c-0.5-0.1-1-0.1-1.5-0.1h-2.6L144.4,218.4z"/>
	<path class="st1_404-page-not-found-97" d="M175,214.2c-0.4-0.5-1-1-1.7-1.2c-0.6-0.2-1.3-0.4-2-0.4c-0.4,0-0.8,0.1-1.1,0.1c-0.4,0.1-0.8,0.2-1.1,0.4&#10;&#9;&#9;c-0.3,0.2-0.6,0.4-0.9,0.7c-0.2,0.3-0.3,0.7-0.3,1.1c0,0.6,0.3,1.3,0.8,1.6c0.6,0.4,1.3,0.8,2,1c0.8,0.3,1.7,0.5,2.6,0.8&#10;&#9;&#9;c0.9,0.3,1.8,0.6,2.6,1.1c0.8,0.5,1.5,1.2,2,1.9c0.6,1,0.9,2.1,0.8,3.3c0,1.2-0.2,2.3-0.7,3.4c-0.5,0.9-1.2,1.8-2,2.4&#10;&#9;&#9;c-0.9,0.6-1.8,1.1-2.9,1.4c-1.1,0.3-2.3,0.5-3.5,0.5c-1.4,0-2.9-0.2-4.2-0.7c-1.4-0.5-2.6-1.3-3.6-2.2l3.7-4c0.5,0.7,1.2,1.3,2,1.6&#10;&#9;&#9;c0.8,0.4,1.6,0.6,2.5,0.6c0.4,0,0.9,0,1.3-0.1c0.4-0.1,0.8-0.2,1.1-0.4c0.3-0.2,0.6-0.4,0.8-0.8c0.2-0.3,0.3-0.7,0.3-1.1&#10;&#9;&#9;c0-0.7-0.3-1.3-0.8-1.7c-0.6-0.4-1.3-0.8-2-1c-0.8-0.3-1.7-0.6-2.6-0.9c-0.9-0.3-1.8-0.7-2.6-1.2c-0.8-0.5-1.5-1.1-2-1.9&#10;&#9;&#9;c-0.6-0.9-0.9-2-0.8-3.1c-0.1-2.2,1-4.3,2.7-5.7c0.9-0.7,1.8-1.1,2.9-1.4c1.1-0.3,2.2-0.5,3.3-0.5c1.3,0,2.6,0.2,3.8,0.6&#10;&#9;&#9;c1.2,0.4,2.4,1,3.3,1.9L175,214.2z"/>
	<path class="st1_404-page-not-found-97" d="M187.6,229c0-0.8,0.3-1.6,0.9-2.2c0.3-0.3,0.6-0.5,1-0.6c0.4-0.2,0.8-0.2,1.2-0.2c0.4,0,0.8,0.1,1.2,0.2&#10;&#9;&#9;c0.4,0.1,0.7,0.4,1,0.6c0.6,0.6,0.9,1.4,0.9,2.2c0,0.4-0.1,0.8-0.2,1.2c-0.1,0.4-0.4,0.7-0.6,1c-0.3,0.3-0.6,0.5-1,0.6&#10;&#9;&#9;c-0.4,0.2-0.8,0.2-1.2,0.2c-0.4,0-0.8-0.1-1.2-0.2c-0.4-0.1-0.7-0.4-1-0.6c-0.3-0.3-0.5-0.6-0.6-1&#10;&#9;&#9;C187.7,229.8,187.6,229.4,187.6,229z M193.2,224.1h-5v-15.7h5V224.1z"/>
</g>
<g id="_404_404-page-not-found-97">
	<path class="st4_404-page-not-found-97" d="M210.1,384H62.4c-3.9,0-7.1-3.2-7.1-7.1c0-1.5,0.5-2.9,1.4-4.2l73.9-101.4c2.3-3.2,6.7-3.9,9.9-1.5&#10;&#9;&#9;c0.6,0.4,1.1,1,1.5,1.5l73.9,101.4c2.3,3.2,1.6,7.6-1.6,9.9C213.1,383.5,211.6,384,210.1,384z"/>
	<path class="st1_404-page-not-found-97" d="M210.1,386.5H62.4c-5.3,0-9.6-4.3-9.6-9.6c0-2,0.6-4,1.8-5.7l73.9-101.4c3.1-4.3,9.1-5.2,13.4-2.1&#10;&#9;&#9;c0.8,0.6,1.5,1.3,2.1,2.1l73.9,101.4c3.1,4.3,2.2,10.3-2.1,13.4C214.2,385.9,212.2,386.5,210.1,386.5L210.1,386.5z M136.3,271&#10;&#9;&#9;c-1.5,0-2.9,0.7-3.7,1.9L58.7,374.2c-1.5,2-1,4.9,1,6.4c0.8,0.6,1.7,0.9,2.7,0.9h147.8c2.5,0,4.6-2.1,4.6-4.6c0-1-0.3-1.9-0.9-2.7&#10;&#9;&#9;L140,272.9C139.1,271.7,137.7,271,136.3,271z"/>
	<path class="st1_404-page-not-found-97" d="M110.5,328.7h-7.3l-12.8,19.5v5.6h13.7v6.3h6.4v-6.3h4v-5.6h-4L110.5,328.7z M104.1,348.2h-7l7-10.8h0.1&#10;&#9;&#9;L104.1,348.2z M142.5,333.5c-0.9-1.6-2.1-2.9-3.6-3.8c-3.6-2-7.9-2-11.5,0c-1.5,1-2.7,2.3-3.6,3.8c-0.9,1.6-1.5,3.4-1.8,5.2&#10;&#9;&#9;c-0.7,3.7-0.7,7.6,0,11.3c0.3,1.8,0.9,3.6,1.8,5.2c0.9,1.6,2.1,2.9,3.6,3.8c3.6,2,7.9,2,11.5,0c1.5-1,2.7-2.3,3.6-3.8&#10;&#9;&#9;c0.9-1.6,1.5-3.4,1.8-5.2c0.7-3.8,0.7-7.6,0-11.3C144,336.8,143.4,335.1,142.5,333.5L142.5,333.5z M138.1,347.3&#10;&#9;&#9;c-0.1,1.1-0.3,2.2-0.6,3.3c-0.3,1-0.8,1.9-1.5,2.7c-1.6,1.5-4,1.5-5.6,0c-0.7-0.8-1.2-1.7-1.5-2.7c-0.3-1.1-0.5-2.2-0.6-3.3&#10;&#9;&#9;c-0.1-1.1-0.1-2.1-0.1-3s0-1.8,0.1-3c0.1-1.1,0.3-2.2,0.6-3.3c0.3-1,0.8-1.9,1.5-2.7c1.6-1.5,4-1.5,5.6,0c0.7,0.8,1.2,1.7,1.5,2.7&#10;&#9;&#9;c0.3,1.1,0.5,2.2,0.6,3.3c0.1,1.1,0.1,2.1,0.1,3S138.1,346.2,138.1,347.3L138.1,347.3z M171.8,348.2v-19.5h-7.3l-12.8,19.5v5.6&#10;&#9;&#9;h13.7v6.3h6.4v-6.3h4v-5.6L171.8,348.2z M165.5,348.2h-7.1l7-10.8h0.1L165.5,348.2z"/>
</g>
<g id="file_404-page-not-found-97">
	<polygon class="st2_404-page-not-found-97 targetColor" points="444.7,383.1 236.2,383.1 236.2,201.2 266.3,164.7 444.7,164.7 &#9;" style="fill: rgb(104, 225, 253);"/>
	<path class="st1_404-page-not-found-97" d="M444.7,385.6H236.2c-1.4,0-2.5-1.1-2.5-2.5c0,0,0,0,0,0V201.2c0-0.6,0.2-1.1,0.6-1.6l30.1-36.6&#10;&#9;&#9;c0.5-0.6,1.2-0.9,1.9-0.9h178.4c1.4,0,2.5,1.1,2.5,2.5c0,0,0,0,0,0v218.5C447.2,384.5,446.1,385.6,444.7,385.6&#10;&#9;&#9;C444.7,385.7,444.7,385.7,444.7,385.6z M238.7,380.6h203.5V167.2H267.5l-28.8,34.9L238.7,380.6z"/>
	<path class="st1_404-page-not-found-97" d="M278.6,261.5c-1.4,0-2.5-1.1-2.5-2.5c0-0.7,0.3-1.3,0.7-1.7l31.9-32.1c1-1,2.5-1,3.5-0.1c1,1,1,2.5,0.1,3.5&#10;&#9;&#9;c0,0,0,0-0.1,0.1l-31.9,32.1C280,261.2,279.3,261.5,278.6,261.5z"/>
	<path class="st1_404-page-not-found-97" d="M310.6,261.5c-0.7,0-1.3-0.3-1.8-0.7l-31.9-32.1c-1-1-1-2.6,0-3.5c1-1,2.6-1,3.5,0l31.9,32.1c1,1,1,2.6,0,3.5&#10;&#9;&#9;c0,0,0,0,0,0C311.9,261.2,311.3,261.5,310.6,261.5z"/>
	<path class="st1_404-page-not-found-97" d="M377,261.5c-0.7,0-1.3-0.3-1.8-0.7c-1-1-1-2.6,0-3.5c0,0,0,0,0,0l31.9-32.1c1-1,2.5-1,3.5-0.1&#10;&#9;&#9;c1,1,1,2.5,0.1,3.5c0,0,0,0-0.1,0.1l-31.9,32.1C378.3,261.2,377.7,261.5,377,261.5z"/>
	<path class="st1_404-page-not-found-97" d="M408.9,261.5c-0.7,0-1.3-0.3-1.8-0.7l-31.9-32.1c-1-1-1-2.5-0.1-3.5c1-1,2.5-1,3.5-0.1c0,0,0,0,0.1,0.1&#10;&#9;&#9;l31.9,32.1c1,1,1,2.6,0,3.5c0,0,0,0,0,0C410.2,261.2,409.6,261.5,408.9,261.5z"/>
	<path class="st5_404-page-not-found-97" d="M326.7,295.2H355l0,0v27c0,6.8-5.5,12.3-12.3,12.3H339c-6.8,0-12.3-5.5-12.3-12.3L326.7,295.2L326.7,295.2z"/>
	<path class="st1_404-page-not-found-97" d="M340.9,337c-9.2,0-16.7-7.5-16.7-16.7v-25.1c0-1.4,1.1-2.5,2.5-2.5c0,0,0,0,0,0H355c1.4,0,2.5,1.1,2.5,2.5&#10;&#9;&#9;v25.1C357.5,329.5,350,337,340.9,337z M329.2,297.7v22.6c0,6.5,5.2,11.7,11.7,11.7c6.5,0,11.7-5.2,11.7-11.7l0,0v-22.6H329.2z"/>
	<path class="st1_404-page-not-found-97" d="M340.9,317.4c-1.4,0-2.5-1.1-2.5-2.5v-19.6c0-1.4,1.1-2.5,2.5-2.5s2.5,1.1,2.5,2.5v19.6&#10;&#9;&#9;C343.4,316.3,342.2,317.4,340.9,317.4z"/>
	<path class="st1_404-page-not-found-97" d="M408.9,297.7H278.6c-1.4-0.1-2.4-1.3-2.3-2.7c0.1-1.2,1.1-2.2,2.3-2.3h130.3c1.4,0.1,2.4,1.3,2.3,2.7&#10;&#9;&#9;C411.1,296.7,410.1,297.6,408.9,297.7z"/>
	<polygon class="st0_404-page-not-found-97" points="236.2,201.2 266,201.2 266.3,164.7 &#9;"/>
	<path class="st1_404-page-not-found-97" d="M266,203.7h-29.8c-1,0-1.9-0.6-2.3-1.4c-0.4-0.9-0.3-1.9,0.3-2.6l30.2-36.6c0.9-1.1,2.5-1.2,3.5-0.3&#10;&#9;&#9;c0.6,0.5,0.9,1.2,0.9,2l-0.3,36.6C268.5,202.6,267.4,203.7,266,203.7z M241.5,198.7h22l0.2-27L241.5,198.7z"/>
</g>
</svg>